<?xml version="1.0" encoding="UTF-8"?>
<svg width="57px" height="54px" viewBox="0 0 57 54" version="1.1" xmlns="http://www.w3.org/2000/svg" xmlns:xlink="http://www.w3.org/1999/xlink">
    <g id="Components" stroke="none" stroke-width="1" fill="none" fill-rule="evenodd">
        <g id="Main-web" transform="translate(-777.000000, -2739.000000)">
            <g id="counters" transform="translate(397.000000, 2722.000000)">
                <g id="Group-5">
                    <g id="#1-copy" transform="translate(380.000000, 0.000000)">
                        <g id="active-user" transform="translate(0.000000, 17.000000)">
                            <circle id="Oval-3" fill="#7ED321" cx="29" cy="46" r="4"></circle>
                            <path d="M42.6724732,53.2956684 C51.3752184,48.219067 56.8333333,39.0175547 56.8333333,28.8333333 C56.8333333,13.1715729 44.1617605,0.5 28.5,0.5 C12.8382395,0.5 0.166666667,13.1715729 0.166666667,28.8333333 C0.166666667,39.0484299 5.65671437,48.3280681 14.3376653,53.3015296 C15.0564803,53.7133506 15.9730419,53.4644829 16.3848629,52.745668 C16.796684,52.0268531 16.5478163,51.1102915 15.8290013,50.6984704 C8.07236464,46.254564 3.16666667,37.962632 3.16666667,28.8333333 C3.16666667,14.8284271 14.4950938,3.5 28.5,3.5 C42.5049062,3.5 53.8333333,14.8284271 53.8333333,28.8333333 C53.8333333,37.9341415 48.9554393,46.1574938 41.1608601,50.7043316 C40.4452823,51.1217521 40.2035779,52.0402287 40.6209983,52.7558065 C41.0384187,53.4713844 41.9568953,53.7130888 42.6724732,53.2956684 Z" id="Shape" fill="#259EFA" fill-rule="nonzero"></path>
                            <path d="M16.5833333,52.3333333 L16.5833333,41.2487179 C16.5833333,36.0653919 20.7641736,31.8333333 25.8666151,31.8333333 L31.3000516,31.8333333 C36.4024931,31.8333333 40.5833333,36.0653919 40.5833333,41.2487179 L40.5833333,52.3333333 C40.5833333,53.1617605 41.2549062,53.8333333 42.0833333,53.8333333 C42.9117605,53.8333333 43.5833333,53.1617605 43.5833333,52.3333333 L43.5833333,41.2487179 C43.5833333,34.4166594 38.0675792,28.8333333 31.3000516,28.8333333 L25.8666151,28.8333333 C19.0990875,28.8333333 13.5833333,34.4166594 13.5833333,41.2487179 L13.5833333,52.3333333 C13.5833333,53.1617605 14.2549062,53.8333333 15.0833333,53.8333333 C15.9117605,53.8333333 16.5833333,53.1617605 16.5833333,52.3333333 Z" id="Shape" fill="#259EFA" fill-rule="nonzero"></path>
                            <path d="M28.6666667,30.5 C23.1438192,30.5 18.6666667,26.0228475 18.6666667,20.5 C18.6666667,14.9771525 23.1438192,10.5 28.6666667,10.5 C34.1895142,10.5 38.6666667,14.9771525 38.6666667,20.5 C38.6666667,26.0228475 34.1895142,30.5 28.6666667,30.5 Z M28.6666667,27.5 C32.5326599,27.5 35.6666667,24.3659932 35.6666667,20.5 C35.6666667,16.6340068 32.5326599,13.5 28.6666667,13.5 C24.8006734,13.5 21.6666667,16.6340068 21.6666667,20.5 C21.6666667,24.3659932 24.8006734,27.5 28.6666667,27.5 Z" id="Oval" fill="#259EFA" fill-rule="nonzero"></path>
                        </g>
                    </g>
                </g>
            </g>
        </g>
    </g>
</svg>