<?xml version="1.0" encoding="UTF-8"?>
<svg width="58px" height="55px" viewBox="0 0 58 55" version="1.1" xmlns="http://www.w3.org/2000/svg" xmlns:xlink="http://www.w3.org/1999/xlink">
    <g id="Components" stroke="none" stroke-width="1" fill="none" fill-rule="evenodd">
        <g id="Main-web" transform="translate(-397.000000, -2739.000000)" fill-rule="nonzero" fill="#4C9DF4">
            <g id="counters" transform="translate(397.000000, 2722.000000)">
                <g id="Group-5">
                    <g id="#1">
                        <g id="reg-user" transform="translate(0.000000, 17.000000)">
                            <path d="M42.7186579,53.3166362 C51.8657609,48.323884 57.5,39.17503 57.5,29 C57.5,13.1966822 44.7790528,0.5 29,0.5 C13.2209472,0.5 0.5,13.1966822 0.5,29 C0.5,38.9389441 5.92090595,48.2429621 14.2215833,53.2822119 C14.9297294,53.7121196 15.8523042,53.4865628 16.2822119,52.7784167 C16.7121196,52.0702706 16.4865628,51.1476958 15.7784167,50.7177881 C8.35962963,46.2139241 3.5,37.8732368 3.5,29 C3.5,14.85482 14.8765206,3.5 29,3.5 C43.1234794,3.5 54.5,14.85482 54.5,29 C54.5,38.0581117 49.4811749,46.207659 41.2813421,50.6833638 C40.554184,51.0802677 40.28646,51.9914999 40.6833638,52.7186579 C41.0802677,53.445816 41.9914999,53.71354 42.7186579,53.3166362 Z" id="Shape"></path>
                            <path d="M16.5,52 L16.5,41 C16.5,35.7142535 20.6985186,31.5 26,31.5 L31,31.5 C36.3014814,31.5 40.5,35.7142535 40.5,41 L40.5,52 C40.5,52.8284271 41.1715729,53.5 42,53.5 C42.8284271,53.5 43.5,52.8284271 43.5,52 L43.5,41 C43.5,34.0599062 37.960853,28.5 31,28.5 L26,28.5 C19.039147,28.5 13.5,34.0599062 13.5,41 L13.5,52 C13.5,52.8284271 14.1715729,53.5 15,53.5 C15.8284271,53.5 16.5,52.8284271 16.5,52 Z" id="Shape"></path>
                            <path d="M28.5,30.5 C22.9771525,30.5 18.5,26.0228475 18.5,20.5 C18.5,14.9771525 22.9771525,10.5 28.5,10.5 C34.0228475,10.5 38.5,14.9771525 38.5,20.5 C38.5,26.0228475 34.0228475,30.5 28.5,30.5 Z M28.5,27.5 C32.3659932,27.5 35.5,24.3659932 35.5,20.5 C35.5,16.6340068 32.3659932,13.5 28.5,13.5 C24.6340068,13.5 21.5,16.6340068 21.5,20.5 C21.5,24.3659932 24.6340068,27.5 28.5,27.5 Z" id="Oval"></path>
                            <path d="M27.5,43 L27.5,53 C27.5,53.8284271 28.1715729,54.5 29,54.5 C29.8284271,54.5 30.5,53.8284271 30.5,53 L30.5,43 C30.5,42.1715729 29.8284271,41.5 29,41.5 C28.1715729,41.5 27.5,42.1715729 27.5,43 Z" id="Shape"></path>
                            <path d="M34,46.5 L24,46.5 C23.1715729,46.5 22.5,47.1715729 22.5,48 C22.5,48.8284271 23.1715729,49.5 24,49.5 L34,49.5 C34.8284271,49.5 35.5,48.8284271 35.5,48 C35.5,47.1715729 34.8284271,46.5 34,46.5 Z" id="Shape"></path>
                        </g>
                    </g>
                </g>
            </g>
        </g>
    </g>
</svg>